<?xml version="1.0" encoding="UTF-8"?>
<svg xmlns="http://www.w3.org/2000/svg" xmlns:xlink="http://www.w3.org/1999/xlink" viewBox="0 0 48 48" width="48px" height="48px">
<g id="surface16863195">
<path style=" stroke:none;fill-rule:nonzero;fill:rgb(76.862746%,61.176473%,28.235295%);fill-opacity:1;" d="M 37.847656 37.539062 L 24.847656 43.605469 C 24.308594 43.855469 23.691406 43.855469 23.152344 43.605469 L 10.152344 37.539062 C 9.449219 37.210938 9 36.503906 9 35.726562 L 9 8 C 9 6.894531 9.894531 6 11 6 L 37 6 C 38.105469 6 39 6.894531 39 8 L 39 35.726562 C 39 36.503906 38.550781 37.210938 37.847656 37.539062 Z M 37.847656 37.539062 "/>
<path style=" stroke:none;fill-rule:evenodd;fill:rgb(100%,100%,100%);fill-opacity:1;" d="M 29.390625 37 L 18.589844 37 C 18.449219 37 18.410156 37.1875 18.535156 37.242188 L 23.824219 39.648438 C 23.855469 39.664062 23.894531 39.664062 23.925781 39.652344 L 29.441406 37.242188 C 29.566406 37.1875 29.527344 37 29.390625 37 Z M 29.390625 37 "/>
<path style=" stroke:none;fill-rule:nonzero;fill:rgb(100%,100%,100%);fill-opacity:1;" d="M 12.449219 24.71875 L 16.78125 24.71875 L 16.78125 22.550781 L 14.613281 22.550781 L 14.613281 18.941406 L 16.78125 18.941406 L 16.78125 16.777344 L 14.613281 16.777344 L 14.613281 13.164062 L 16.78125 13.164062 L 16.78125 11 L 12.449219 11 Z M 12.449219 24.71875 "/>
<path style=" stroke:none;fill-rule:nonzero;fill:rgb(100%,100%,100%);fill-opacity:1;" d="M 25.445312 11 L 27.609375 11 L 27.609375 24.71875 L 25.445312 24.71875 Z M 25.445312 11 "/>
<path style=" stroke:none;fill-rule:nonzero;fill:rgb(100%,100%,100%);fill-opacity:1;" d="M 20.390625 20.386719 L 21.542969 20.386719 C 23.1875 20.386719 24 19.5625 24 17.898438 L 24 13.640625 C 24 11.871094 23.132812 11 21.375 11 L 18.226562 11 L 18.226562 24.71875 L 20.390625 24.71875 Z M 20.390625 13.164062 L 21.113281 13.164062 C 21.511719 13.164062 21.835938 13.488281 21.835938 13.886719 L 21.835938 17.496094 C 21.835938 17.898438 21.511719 18.21875 21.113281 18.21875 L 20.390625 18.21875 Z M 20.390625 13.164062 "/>
<path style=" stroke:none;fill-rule:nonzero;fill:rgb(100%,100%,100%);fill-opacity:1;" d="M 35.550781 22.152344 L 35.550781 19.664062 L 33.386719 19.664062 L 33.386719 21.703125 C 33.386719 22.28125 33.105469 22.550781 32.527344 22.550781 L 32.097656 22.550781 C 31.496094 22.550781 31.21875 22.28125 31.21875 21.703125 L 31.21875 13.886719 C 31.21875 13.488281 31.542969 13.164062 31.941406 13.164062 L 32.664062 13.164062 C 33.0625 13.164062 33.386719 13.488281 33.386719 13.886719 L 33.386719 16.054688 L 35.550781 16.054688 L 35.550781 13.613281 C 35.550781 11.851562 34.675781 11 32.855469 11 L 31.769531 11 C 29.953125 11 29.054688 11.871094 29.054688 13.636719 L 29.054688 22.082031 C 29.054688 23.84375 29.953125 24.71875 31.769531 24.71875 L 32.871094 24.71875 C 34.664062 24.71875 35.550781 23.867188 35.550781 22.152344 Z M 35.550781 22.152344 "/>
<path style=" stroke:none;fill-rule:nonzero;fill:rgb(100%,100%,100%);fill-opacity:1;" d="M 35.492188 31.195312 L 35.488281 31.132812 L 35.464844 31.015625 L 35.453125 30.960938 L 35.414062 30.851562 L 35.394531 30.804688 L 35.363281 30.75 L 35.332031 30.703125 L 35.296875 30.648438 L 35.261719 30.601562 L 35.21875 30.558594 L 35.179688 30.511719 L 35.128906 30.46875 L 35.082031 30.425781 L 35.035156 30.398438 L 34.988281 30.359375 L 34.941406 30.332031 L 34.832031 30.269531 L 34.773438 30.242188 L 34.710938 30.21875 L 34.652344 30.1875 L 34.585938 30.164062 L 34.535156 30.144531 L 34.480469 30.128906 L 34.421875 30.109375 L 34.367188 30.09375 L 34.308594 30.074219 L 34.246094 30.054688 L 34.1875 30.042969 L 34.121094 30.027344 L 34.0625 30.007812 L 33.996094 29.996094 L 33.929688 29.976562 L 33.867188 29.960938 L 33.800781 29.941406 L 33.738281 29.929688 L 33.6875 29.910156 L 33.632812 29.898438 L 33.585938 29.882812 L 33.539062 29.871094 L 33.464844 29.847656 L 33.398438 29.824219 L 33.339844 29.796875 L 33.292969 29.769531 L 33.238281 29.738281 L 33.199219 29.695312 L 33.175781 29.660156 L 33.144531 29.59375 L 33.136719 29.515625 L 33.136719 29.503906 L 33.144531 29.445312 L 33.167969 29.390625 L 33.203125 29.335938 L 33.257812 29.289062 L 33.300781 29.265625 L 33.347656 29.242188 L 33.398438 29.230469 L 33.460938 29.21875 L 33.523438 29.203125 L 33.65625 29.203125 L 33.710938 29.210938 L 33.769531 29.21875 L 33.828125 29.222656 L 33.890625 29.234375 L 34.007812 29.257812 L 34.066406 29.277344 L 34.128906 29.296875 L 34.195312 29.3125 L 34.242188 29.335938 L 34.296875 29.355469 L 34.34375 29.378906 L 34.398438 29.402344 L 34.445312 29.425781 L 34.496094 29.449219 L 34.546875 29.480469 L 34.601562 29.503906 L 34.648438 29.539062 L 34.695312 29.570312 L 34.746094 29.601562 L 34.796875 29.636719 L 34.832031 29.589844 L 34.863281 29.539062 L 34.933594 29.445312 L 34.96875 29.390625 L 35 29.34375 L 35.035156 29.296875 L 35.070312 29.246094 L 35.101562 29.199219 L 35.136719 29.152344 L 35.171875 29.101562 L 35.203125 29.054688 L 35.273438 28.953125 L 35.308594 28.90625 L 35.339844 28.859375 L 35.375 28.808594 L 35.28125 28.738281 L 35.230469 28.703125 L 35.183594 28.671875 L 35.128906 28.636719 L 35.082031 28.605469 L 35.027344 28.574219 L 34.976562 28.546875 L 34.925781 28.523438 L 34.871094 28.492188 L 34.8125 28.46875 L 34.761719 28.445312 L 34.707031 28.421875 L 34.652344 28.402344 L 34.59375 28.378906 L 34.539062 28.367188 L 34.484375 28.347656 L 34.425781 28.328125 L 34.371094 28.320312 L 34.253906 28.296875 L 34.199219 28.28125 L 34.140625 28.269531 L 34.074219 28.265625 L 34.015625 28.253906 L 33.949219 28.246094 L 33.890625 28.246094 L 33.824219 28.238281 L 33.757812 28.234375 L 33.503906 28.234375 L 33.441406 28.238281 L 33.324219 28.253906 L 33.261719 28.257812 L 33.210938 28.269531 L 33.148438 28.28125 L 33.097656 28.296875 L 33.042969 28.308594 L 32.996094 28.320312 L 32.941406 28.335938 L 32.882812 28.359375 L 32.820312 28.378906 L 32.769531 28.402344 L 32.714844 28.433594 L 32.660156 28.457031 L 32.605469 28.484375 L 32.558594 28.515625 L 32.511719 28.550781 L 32.464844 28.589844 L 32.421875 28.617188 L 32.375 28.660156 L 32.332031 28.707031 L 32.289062 28.75 L 32.25 28.796875 L 32.214844 28.847656 L 32.179688 28.894531 L 32.117188 29.003906 L 32.09375 29.054688 L 32.046875 29.164062 L 32.035156 29.21875 L 32.015625 29.269531 L 31.992188 29.378906 L 31.988281 29.4375 L 31.980469 29.492188 L 31.976562 29.554688 L 31.976562 29.691406 L 31.980469 29.757812 L 31.988281 29.816406 L 31.992188 29.875 L 32.003906 29.929688 L 32.015625 29.988281 L 32.035156 30.039062 L 32.050781 30.09375 L 32.070312 30.140625 L 32.09375 30.183594 L 32.125 30.234375 L 32.152344 30.28125 L 32.183594 30.324219 L 32.21875 30.367188 L 32.257812 30.410156 L 32.339844 30.492188 L 32.378906 30.527344 L 32.429688 30.558594 L 32.476562 30.59375 L 32.53125 30.625 L 32.578125 30.65625 L 32.636719 30.683594 L 32.691406 30.714844 L 32.808594 30.761719 L 32.871094 30.785156 L 32.933594 30.8125 L 32.988281 30.828125 L 33.042969 30.847656 L 33.097656 30.863281 L 33.15625 30.875 L 33.210938 30.894531 L 33.269531 30.914062 L 33.328125 30.925781 L 33.390625 30.941406 L 33.449219 30.953125 L 33.515625 30.972656 L 33.574219 30.984375 L 33.640625 31.003906 L 33.699219 31.015625 L 33.757812 31.03125 L 33.8125 31.042969 L 33.867188 31.0625 L 33.914062 31.074219 L 33.953125 31.085938 L 34.027344 31.117188 L 34.085938 31.140625 L 34.140625 31.164062 L 34.1875 31.1875 L 34.234375 31.222656 L 34.277344 31.261719 L 34.308594 31.300781 L 34.332031 31.359375 L 34.335938 31.433594 L 34.335938 31.445312 L 34.332031 31.507812 L 34.3125 31.558594 L 34.289062 31.609375 L 34.253906 31.648438 L 34.207031 31.6875 L 34.164062 31.710938 L 34.117188 31.726562 L 34.007812 31.75 L 33.949219 31.761719 L 33.882812 31.769531 L 33.753906 31.769531 L 33.6875 31.761719 L 33.628906 31.761719 L 33.566406 31.75 L 33.503906 31.746094 L 33.441406 31.734375 L 33.324219 31.710938 L 33.269531 31.691406 L 33.210938 31.671875 L 33.148438 31.65625 L 33.097656 31.632812 L 33.042969 31.613281 L 32.933594 31.566406 L 32.832031 31.511719 L 32.78125 31.488281 L 32.730469 31.457031 L 32.679688 31.421875 L 32.632812 31.390625 L 32.578125 31.355469 L 32.53125 31.320312 L 32.476562 31.285156 L 32.429688 31.246094 L 32.390625 31.296875 L 32.351562 31.339844 L 32.316406 31.386719 L 32.273438 31.433594 L 32.238281 31.476562 L 32.203125 31.523438 L 32.160156 31.570312 L 32.125 31.613281 L 32.082031 31.660156 L 32.046875 31.703125 L 32.003906 31.75 L 31.96875 31.800781 L 31.933594 31.839844 L 31.890625 31.890625 L 31.855469 31.9375 L 31.8125 31.980469 L 31.777344 32.027344 L 31.824219 32.070312 L 31.867188 32.105469 L 31.914062 32.140625 L 31.964844 32.175781 L 32.058594 32.246094 L 32.152344 32.308594 L 32.207031 32.339844 L 32.257812 32.367188 L 32.308594 32.398438 L 32.363281 32.421875 L 32.417969 32.453125 L 32.46875 32.476562 L 32.523438 32.5 L 32.582031 32.523438 L 32.636719 32.539062 L 32.695312 32.558594 L 32.75 32.582031 L 32.808594 32.601562 L 32.871094 32.621094 L 32.921875 32.632812 L 32.984375 32.648438 L 33.160156 32.683594 L 33.222656 32.699219 L 33.28125 32.703125 L 33.339844 32.714844 L 33.40625 32.722656 L 33.464844 32.726562 L 33.523438 32.734375 L 33.589844 32.734375 L 33.652344 32.738281 L 33.902344 32.738281 L 33.960938 32.734375 L 34.027344 32.726562 L 34.085938 32.722656 L 34.140625 32.714844 L 34.199219 32.710938 L 34.257812 32.699219 L 34.3125 32.683594 L 34.367188 32.671875 L 34.425781 32.660156 L 34.480469 32.644531 L 34.539062 32.625 L 34.601562 32.609375 L 34.660156 32.582031 L 34.71875 32.558594 L 34.773438 32.53125 L 34.824219 32.507812 L 34.878906 32.476562 L 34.925781 32.441406 L 34.976562 32.410156 L 35.023438 32.375 L 35.0625 32.339844 L 35.113281 32.296875 L 35.191406 32.21875 L 35.226562 32.175781 L 35.253906 32.128906 L 35.289062 32.082031 L 35.320312 32.03125 L 35.351562 31.984375 L 35.375 31.929688 L 35.398438 31.882812 L 35.421875 31.828125 L 35.441406 31.769531 L 35.453125 31.714844 L 35.46875 31.65625 L 35.480469 31.59375 L 35.488281 31.527344 L 35.492188 31.46875 L 35.5 31.402344 L 35.5 31.261719 Z M 35.492188 31.195312 "/>
<path style=" stroke:none;fill-rule:nonzero;fill:rgb(100%,100%,100%);fill-opacity:1;" d="M 31.25 31.679688 L 29.03125 31.679688 L 29.03125 30.9375 L 31.109375 30.9375 L 31.109375 30.007812 L 29.03125 30.007812 L 29.03125 29.296875 L 31.339844 29.296875 L 31.339844 28.308594 L 27.894531 28.308594 L 27.894531 32.667969 L 31.371094 32.667969 L 31.371094 31.679688 Z M 31.25 31.679688 "/>
<path style=" stroke:none;fill-rule:nonzero;fill:rgb(100%,100%,100%);fill-opacity:1;" d="M 26.894531 28.308594 L 25.789062 28.308594 L 25.761719 28.355469 L 25.730469 28.40625 L 25.695312 28.457031 L 25.664062 28.511719 L 25.636719 28.558594 L 25.605469 28.613281 L 25.570312 28.660156 L 25.539062 28.714844 L 25.511719 28.761719 L 25.480469 28.808594 L 25.445312 28.863281 L 25.414062 28.910156 L 25.386719 28.964844 L 25.355469 29.011719 L 25.320312 29.066406 L 25.257812 29.160156 L 25.230469 29.214844 L 25.199219 29.265625 L 25.164062 29.316406 L 25.132812 29.363281 L 25.105469 29.417969 L 25.074219 29.46875 L 25.039062 29.519531 L 25.007812 29.566406 L 24.980469 29.617188 L 24.949219 29.671875 L 24.914062 29.71875 L 24.882812 29.773438 L 24.855469 29.820312 L 24.824219 29.871094 L 24.789062 29.921875 L 24.757812 29.976562 L 24.726562 30.023438 L 24.699219 29.976562 L 24.667969 29.921875 L 24.632812 29.871094 L 24.605469 29.820312 L 24.574219 29.773438 L 24.542969 29.71875 L 24.515625 29.671875 L 24.476562 29.617188 L 24.449219 29.566406 L 24.417969 29.519531 L 24.390625 29.46875 L 24.359375 29.417969 L 24.324219 29.363281 L 24.292969 29.316406 L 24.261719 29.265625 L 24.234375 29.214844 L 24.203125 29.160156 L 24.167969 29.113281 L 24.136719 29.066406 L 24.109375 29.011719 L 24.078125 28.964844 L 24.042969 28.910156 L 24.011719 28.863281 L 23.984375 28.808594 L 23.921875 28.714844 L 23.886719 28.660156 L 23.859375 28.613281 L 23.828125 28.558594 L 23.800781 28.511719 L 23.769531 28.457031 L 23.730469 28.40625 L 23.703125 28.355469 L 23.671875 28.308594 L 22.449219 28.308594 L 22.449219 32.667969 L 23.582031 32.667969 L 23.582031 30.101562 L 23.617188 30.148438 L 23.648438 30.203125 L 23.683594 30.25 L 23.714844 30.304688 L 23.75 30.351562 L 23.78125 30.40625 L 23.816406 30.453125 L 23.847656 30.507812 L 23.882812 30.554688 L 23.910156 30.609375 L 23.945312 30.660156 L 23.976562 30.714844 L 24.011719 30.761719 L 24.042969 30.816406 L 24.078125 30.863281 L 24.109375 30.917969 L 24.144531 30.964844 L 24.179688 31.019531 L 24.210938 31.066406 L 24.246094 31.121094 L 24.273438 31.167969 L 24.3125 31.222656 L 24.339844 31.269531 L 24.378906 31.324219 L 24.40625 31.371094 L 24.441406 31.425781 L 24.472656 31.476562 L 24.507812 31.527344 L 24.539062 31.578125 L 24.574219 31.632812 L 24.605469 31.679688 L 24.640625 31.734375 L 24.667969 31.78125 L 24.703125 31.835938 L 24.726562 31.835938 L 24.757812 31.785156 L 24.792969 31.734375 L 24.824219 31.683594 L 24.859375 31.636719 L 24.890625 31.582031 L 24.925781 31.535156 L 24.953125 31.488281 L 24.984375 31.433594 L 25.019531 31.386719 L 25.050781 31.335938 L 25.085938 31.289062 L 25.117188 31.234375 L 25.152344 31.1875 L 25.183594 31.140625 L 25.210938 31.085938 L 25.246094 31.035156 L 25.277344 30.988281 L 25.3125 30.933594 L 25.34375 30.886719 L 25.378906 30.839844 L 25.410156 30.785156 L 25.4375 30.738281 L 25.472656 30.6875 L 25.503906 30.636719 L 25.539062 30.585938 L 25.570312 30.539062 L 25.605469 30.492188 L 25.636719 30.4375 L 25.664062 30.390625 L 25.699219 30.339844 L 25.730469 30.285156 L 25.765625 30.238281 L 25.796875 30.191406 L 25.832031 30.136719 L 25.863281 30.089844 L 25.863281 32.667969 L 27.011719 32.667969 L 27.011719 28.308594 Z M 26.894531 28.308594 "/>
<path style=" stroke:none;fill-rule:nonzero;fill:rgb(100%,100%,100%);fill-opacity:1;" d="M 21.917969 32.558594 L 21.894531 32.507812 L 21.875 32.445312 L 21.851562 32.390625 L 21.828125 32.339844 L 21.804688 32.285156 L 21.777344 32.230469 L 21.753906 32.175781 L 21.730469 32.117188 L 21.707031 32.0625 L 21.6875 32.007812 L 21.640625 31.898438 L 21.617188 31.847656 L 21.59375 31.785156 L 21.566406 31.730469 L 21.519531 31.621094 L 21.503906 31.566406 L 21.480469 31.515625 L 21.453125 31.453125 L 21.429688 31.398438 L 21.40625 31.347656 L 21.335938 31.183594 L 21.316406 31.125 L 21.222656 30.90625 L 21.195312 30.855469 L 21.171875 30.792969 L 21.148438 30.738281 L 21.132812 30.6875 L 21.105469 30.632812 L 21.058594 30.523438 L 21.035156 30.464844 L 21.019531 30.421875 L 20.972656 30.3125 L 20.953125 30.257812 L 20.90625 30.148438 L 20.882812 30.089844 L 20.835938 29.980469 L 20.8125 29.929688 L 20.785156 29.875 L 20.769531 29.820312 L 20.746094 29.761719 L 20.722656 29.707031 L 20.695312 29.652344 L 20.625 29.488281 L 20.601562 29.429688 L 20.582031 29.375 L 20.558594 29.320312 L 20.535156 29.269531 L 20.488281 29.160156 L 20.464844 29.101562 L 20.4375 29.046875 L 20.414062 28.992188 L 20.398438 28.9375 L 20.351562 28.828125 L 20.324219 28.769531 L 20.277344 28.660156 L 20.253906 28.609375 L 20.230469 28.554688 L 20.21875 28.511719 L 20.195312 28.449219 L 20.171875 28.394531 L 20.148438 28.34375 L 20.125 28.289062 L 19.015625 28.289062 L 18.988281 28.34375 L 18.964844 28.394531 L 18.941406 28.449219 L 18.925781 28.511719 L 18.898438 28.5625 L 18.828125 28.726562 L 18.804688 28.777344 L 18.78125 28.839844 L 18.757812 28.894531 L 18.738281 28.945312 L 18.667969 29.109375 L 18.644531 29.167969 L 18.617188 29.222656 L 18.570312 29.332031 L 18.554688 29.386719 L 18.527344 29.4375 L 18.503906 29.5 L 18.480469 29.554688 L 18.457031 29.605469 L 18.386719 29.769531 L 18.367188 29.828125 L 18.296875 29.992188 L 18.269531 30.046875 L 18.246094 30.097656 L 18.222656 30.160156 L 18.199219 30.214844 L 18.179688 30.265625 L 18.085938 30.484375 L 18.0625 30.542969 L 18.035156 30.597656 L 18.011719 30.652344 L 17.996094 30.703125 L 17.972656 30.757812 L 17.945312 30.8125 L 17.921875 30.871094 L 17.828125 31.089844 L 17.808594 31.144531 L 17.785156 31.203125 L 17.738281 31.3125 L 17.714844 31.363281 L 17.6875 31.417969 L 17.664062 31.472656 L 17.640625 31.53125 L 17.59375 31.640625 L 17.566406 31.695312 L 17.542969 31.746094 L 17.519531 31.800781 L 17.496094 31.863281 L 17.488281 31.898438 L 17.464844 31.953125 L 17.445312 32.007812 L 17.398438 32.117188 L 17.371094 32.175781 L 17.300781 32.339844 L 17.277344 32.390625 L 17.257812 32.445312 L 17.234375 32.507812 L 17.210938 32.558594 L 17.164062 32.667969 L 18.363281 32.667969 L 18.386719 32.613281 L 18.40625 32.558594 L 18.429688 32.507812 L 18.453125 32.445312 L 18.472656 32.390625 L 18.496094 32.339844 L 18.519531 32.285156 L 18.539062 32.230469 L 18.585938 32.121094 L 18.601562 32.066406 L 18.628906 32.007812 L 18.652344 31.953125 L 18.667969 31.898438 L 18.691406 31.847656 L 20.402344 31.847656 L 20.425781 31.898438 L 20.445312 31.953125 L 20.46875 32.007812 L 20.492188 32.066406 L 20.511719 32.121094 L 20.558594 32.230469 L 20.574219 32.285156 L 20.601562 32.339844 L 20.625 32.390625 L 20.640625 32.445312 L 20.664062 32.507812 L 20.6875 32.558594 L 20.707031 32.613281 L 20.730469 32.667969 L 21.960938 32.667969 L 21.933594 32.613281 Z M 19.996094 30.925781 L 19.050781 30.925781 L 19.074219 30.871094 L 19.09375 30.816406 L 19.117188 30.757812 L 19.140625 30.703125 L 19.15625 30.648438 L 19.179688 30.59375 L 19.203125 30.535156 L 19.230469 30.480469 L 19.246094 30.425781 L 19.269531 30.371094 L 19.296875 30.316406 L 19.3125 30.257812 L 19.359375 30.148438 L 19.378906 30.097656 L 19.402344 30.042969 L 19.425781 29.980469 L 19.449219 29.929688 L 19.46875 29.875 L 19.492188 29.820312 L 19.515625 29.761719 L 19.53125 29.707031 L 19.558594 29.652344 L 19.582031 29.707031 L 19.597656 29.761719 L 19.621094 29.820312 L 19.648438 29.875 L 19.664062 29.929688 L 19.6875 29.980469 L 19.714844 30.042969 L 19.730469 30.097656 L 19.753906 30.148438 L 19.777344 30.203125 L 19.796875 30.257812 L 19.820312 30.316406 L 19.839844 30.371094 L 19.886719 30.480469 L 19.90625 30.53125 L 19.929688 30.59375 L 19.953125 30.648438 L 19.972656 30.699219 L 19.996094 30.753906 L 20.019531 30.816406 L 20.039062 30.867188 L 20.0625 30.921875 Z M 19.996094 30.925781 "/>
<path style=" stroke:none;fill-rule:nonzero;fill:rgb(100%,100%,100%);fill-opacity:1;" d="M 16.601562 30.128906 L 14.753906 30.128906 L 14.753906 31.003906 L 15.625 31.003906 L 15.625 31.546875 L 15.578125 31.578125 L 15.535156 31.601562 L 15.480469 31.625 L 15.433594 31.648438 L 15.382812 31.671875 L 15.328125 31.6875 L 15.269531 31.703125 L 15.207031 31.714844 L 15.148438 31.726562 L 15.089844 31.734375 L 15.023438 31.738281 L 14.957031 31.746094 L 14.820312 31.746094 L 14.753906 31.738281 L 14.695312 31.734375 L 14.636719 31.722656 L 14.574219 31.710938 L 14.457031 31.671875 L 14.347656 31.625 L 14.296875 31.601562 L 14.246094 31.570312 L 14.152344 31.507812 L 14.105469 31.46875 L 14.0625 31.433594 L 14.027344 31.390625 L 13.984375 31.351562 L 13.949219 31.308594 L 13.914062 31.261719 L 13.882812 31.210938 L 13.855469 31.164062 L 13.824219 31.109375 L 13.800781 31.054688 L 13.777344 30.996094 L 13.757812 30.949219 L 13.742188 30.894531 L 13.730469 30.839844 L 13.714844 30.785156 L 13.703125 30.734375 L 13.699219 30.671875 L 13.691406 30.617188 L 13.6875 30.558594 L 13.6875 30.421875 L 13.691406 30.359375 L 13.699219 30.300781 L 13.710938 30.234375 L 13.722656 30.183594 L 13.734375 30.121094 L 13.753906 30.0625 L 13.777344 30.007812 L 13.792969 29.953125 L 13.816406 29.898438 L 13.847656 29.851562 L 13.878906 29.796875 L 13.90625 29.75 L 13.9375 29.707031 L 13.972656 29.660156 L 14.015625 29.617188 L 14.050781 29.578125 L 14.09375 29.539062 L 14.132812 29.503906 L 14.175781 29.46875 L 14.222656 29.4375 L 14.269531 29.410156 L 14.320312 29.378906 L 14.371094 29.355469 L 14.425781 29.332031 L 14.480469 29.3125 L 14.535156 29.296875 L 14.585938 29.28125 L 14.648438 29.269531 L 14.699219 29.265625 L 14.761719 29.257812 L 14.886719 29.257812 L 14.949219 29.265625 L 15.015625 29.269531 L 15.078125 29.277344 L 15.195312 29.300781 L 15.25 29.3125 L 15.304688 29.332031 L 15.355469 29.347656 L 15.402344 29.367188 L 15.453125 29.390625 L 15.5 29.414062 L 15.554688 29.445312 L 15.601562 29.476562 L 15.648438 29.503906 L 15.695312 29.535156 L 15.742188 29.570312 L 15.792969 29.601562 L 15.839844 29.644531 L 15.886719 29.679688 L 15.925781 29.632812 L 15.964844 29.589844 L 16 29.539062 L 16.042969 29.492188 L 16.078125 29.445312 L 16.113281 29.402344 L 16.15625 29.355469 L 16.191406 29.308594 L 16.234375 29.257812 L 16.269531 29.21875 L 16.304688 29.171875 L 16.347656 29.121094 L 16.382812 29.078125 L 16.417969 29.03125 L 16.460938 28.984375 L 16.496094 28.9375 L 16.539062 28.894531 L 16.574219 28.847656 L 16.527344 28.808594 L 16.476562 28.769531 L 16.429688 28.730469 L 16.382812 28.695312 L 16.335938 28.664062 L 16.285156 28.628906 L 16.234375 28.601562 L 16.1875 28.570312 L 16.132812 28.539062 L 16.085938 28.511719 L 15.976562 28.457031 L 15.925781 28.433594 L 15.871094 28.40625 L 15.761719 28.367188 L 15.714844 28.347656 L 15.660156 28.335938 L 15.605469 28.320312 L 15.554688 28.308594 L 15.5 28.296875 L 15.445312 28.28125 L 15.328125 28.257812 L 15.273438 28.253906 L 15.207031 28.238281 L 15.148438 28.234375 L 15.089844 28.234375 L 15.023438 28.230469 L 14.957031 28.222656 L 14.699219 28.222656 L 14.640625 28.230469 L 14.523438 28.238281 L 14.460938 28.246094 L 14.402344 28.257812 L 14.34375 28.265625 L 14.28125 28.277344 L 14.230469 28.296875 L 14.171875 28.308594 L 14.117188 28.324219 L 14.0625 28.335938 L 14.007812 28.359375 L 13.949219 28.378906 L 13.902344 28.398438 L 13.84375 28.425781 L 13.789062 28.449219 L 13.679688 28.503906 L 13.628906 28.535156 L 13.574219 28.566406 L 13.527344 28.59375 L 13.476562 28.625 L 13.429688 28.660156 L 13.382812 28.691406 L 13.335938 28.726562 L 13.292969 28.761719 L 13.246094 28.804688 L 13.203125 28.839844 L 13.121094 28.921875 L 13.042969 29.007812 L 13.007812 29.050781 L 12.972656 29.097656 L 12.933594 29.144531 L 12.898438 29.191406 L 12.867188 29.242188 L 12.839844 29.289062 L 12.808594 29.335938 L 12.78125 29.386719 L 12.75 29.4375 L 12.65625 29.65625 L 12.632812 29.714844 L 12.613281 29.769531 L 12.59375 29.828125 L 12.578125 29.882812 L 12.566406 29.941406 L 12.546875 30.003906 L 12.535156 30.054688 L 12.527344 30.117188 L 12.515625 30.175781 L 12.511719 30.242188 L 12.507812 30.300781 L 12.507812 30.359375 L 12.5 30.425781 L 12.5 30.625 L 12.507812 30.683594 L 12.511719 30.746094 L 12.515625 30.804688 L 12.523438 30.859375 L 12.535156 30.917969 L 12.542969 30.972656 L 12.554688 31.03125 L 12.570312 31.085938 L 12.582031 31.144531 L 12.601562 31.199219 L 12.613281 31.253906 L 12.636719 31.308594 L 12.65625 31.355469 L 12.726562 31.519531 L 12.75 31.570312 L 12.78125 31.617188 L 12.808594 31.671875 L 12.839844 31.722656 L 12.867188 31.769531 L 12.90625 31.816406 L 12.933594 31.863281 L 12.972656 31.90625 L 13.007812 31.953125 L 13.042969 31.996094 L 13.082031 32.039062 L 13.125 32.082031 L 13.167969 32.117188 L 13.210938 32.160156 L 13.25 32.195312 L 13.292969 32.230469 L 13.339844 32.265625 L 13.390625 32.300781 L 13.4375 32.339844 L 13.484375 32.367188 L 13.53125 32.398438 L 13.585938 32.429688 L 13.632812 32.457031 L 13.6875 32.488281 L 13.742188 32.511719 L 13.792969 32.535156 L 13.847656 32.558594 L 13.90625 32.582031 L 13.960938 32.601562 L 14.015625 32.625 L 14.070312 32.644531 L 14.128906 32.65625 L 14.183594 32.671875 L 14.242188 32.683594 L 14.296875 32.699219 L 14.414062 32.722656 L 14.476562 32.726562 L 14.535156 32.734375 L 14.59375 32.738281 L 14.660156 32.746094 L 14.71875 32.75 L 14.976562 32.75 L 15.039062 32.746094 L 15.101562 32.738281 L 15.164062 32.734375 L 15.226562 32.726562 L 15.289062 32.722656 L 15.351562 32.714844 L 15.46875 32.691406 L 15.523438 32.679688 L 15.582031 32.667969 L 15.636719 32.648438 L 15.695312 32.632812 L 15.804688 32.59375 L 15.859375 32.578125 L 15.910156 32.554688 L 15.972656 32.53125 L 16.023438 32.507812 L 16.085938 32.480469 L 16.136719 32.453125 L 16.191406 32.429688 L 16.300781 32.367188 L 16.351562 32.339844 L 16.398438 32.308594 L 16.449219 32.277344 L 16.496094 32.242188 L 16.542969 32.210938 L 16.589844 32.175781 L 16.632812 32.144531 L 16.679688 32.109375 L 16.722656 32.074219 L 16.722656 30.128906 Z M 16.601562 30.128906 "/>
</g>
</svg>
